# xmcd
#
# Track frame offsets:
#	150
#	22285
#	41027
#	59710
#	77942
#	92080
#	112525
#	136142
#	154490
#	173145
#	187600
#	205217
#	226177
#	243755
#
# Disc length: 3527 seconds
#
# Revision: 1
# Processed by: cddbd v1.5.2PL0 Copyright (c) Steve Scherf et al.
# Submitted via: CDex 1.50Beta5
#
DISCID=b20dc50e
DTITLE=Various Artist - サマーソング・ベスト・コレクション
DYEAR=1990
DGENRE=
TTITLE0=SHYLIGHTS
TTITLE1=あなたはショキングシャイン
TTITLE2=君に、胸キュン
TTITLE3=二人のスロー・ダンス
TTITLE4=SWEET LIPS
TTITLE5=SKY LOVE
TTITLE6=DESTINY
TTITLE7=シーズン・イン・ザ・サン
TTITLE8=オーシャン・ブルー
TTITLE9=君たちキウィ・パパイヤ・マンゴーだね
TTITLE10=夏の恋人
TTITLE11=MONDAY MORNING
TTITLE12=FOOUSH(渚のポストマン)
TTITLE13=渚・モデラート
EXTD=
EXTT0=
EXTT1=
EXTT2=
EXTT3=
EXTT4=
EXTT5=
EXTT6=
EXTT7=
EXTT8=
EXTT9=
EXTT10=
EXTT11=
EXTT12=
EXTT13=
PLAYORDER=
